# xmcd
#
# Track frame offsets:
#	150
#	23078
#	40943
#	64438
#	83908
#	108503
#	127625
#	143893
#	167045
#	187843
#
# Disc length: 2791 seconds
#
# Revision: 0
# Processed by: cddbd v1.5.2PL0 Copyright (c) Steve Scherf et al.
# Submitted via: EasyCDDAExtractor 16.0.9.1
#
DISCID=7e0ae50a
DTITLE=Various Artist - Đời CD21 - Dạ Vũ Xuân Đời
DYEAR=1990
DGENRE=Pop
TTITLE0=Tuấn Vũ - Xuân Này Con Không Về [Slow]
TTITLE1=Như Mai and Châu Đình An - Xuân BOLSA [Bebop]
TTITLE2=Như Mai and Duy Tường - Ly Rượu Mừng [Valse]
TTITLE3=Thiên Trang and Khánh Dũng - Gái Xuân [Tango]
TTITLE4=Tuấn Vũ - Phiên Gác Đêm Xuân [Boston]
TTITLE5=Hương Lan - Mộng Chiều Xuân [Tango]
TTITLE6=Vy Vy - Xuân Họp Mặt [Bebop]
TTITLE7=Hải Lý - Tháng Giêng and Anh [Slow]
TTITLE8=Thiên Trang and Châu Đình An - Đám Cưới Đầu Xuân [Rumba]
TTITLE9=Lynda Trang Đài - Cánh Bướm Vườn Xuân [ChaCha]
EXTD=
EXTT0=
EXTT1=
EXTT2=
EXTT3=
EXTT4=
EXTT5=
EXTT6=
EXTT7=
EXTT8=
EXTT9=
PLAYORDER=
